<svg width="651" height="72" viewBox="0 0 651 72" fill="none" xmlns="http://www.w3.org/2000/svg">
<path d="M100.8 0.799999L101.768 1.05225L102.094 -0.200001H100.8V0.799999ZM82.5 71V72H83.2727L83.4677 71.2523L82.5 71ZM61.8 71L60.8282 71.2356L61.0135 72H61.8V71ZM50.6 24.8L51.5719 24.5644L49.6301 24.5565L50.6 24.8ZM39 71V72H39.78L39.9699 71.2435L39 71ZM18.3 71L17.3307 71.2458L17.5219 72H18.3V71ZM0.5 0.799999V-0.200001H-0.785207L-0.469325 1.04578L0.5 0.799999ZM18.8 0.799999L19.781 0.606098L19.6217 -0.200001H18.8V0.799999ZM28.9 51.9L27.919 52.0939L29.8714 52.1376L28.9 51.9ZM41.4 0.799999V-0.200001H40.6151L40.4286 0.562386L41.4 0.799999ZM60.2 0.799999L61.1735 0.571384L60.9924 -0.200001H60.2V0.799999ZM72.2 51.9L71.2265 52.1286L73.1807 52.0957L72.2 51.9ZM82.4 0.799999V-0.200001H81.5799L81.4193 0.604252L82.4 0.799999ZM99.8323 0.547745L81.5323 70.7477L83.4677 71.2523L101.768 1.05225L99.8323 0.547745ZM82.5 70H61.8V72H82.5V70ZM62.7719 70.7644L51.5719 24.5644L49.6282 25.0356L60.8282 71.2356L62.7719 70.7644ZM49.6301 24.5565L38.0301 70.7565L39.9699 71.2435L51.5699 25.0435L49.6301 24.5565ZM39 70H18.3V72H39V70ZM19.2693 70.7542L1.46932 0.554214L-0.469325 1.04578L17.3307 71.2458L19.2693 70.7542ZM0.5 1.8H18.8V-0.200001H0.5V1.8ZM17.819 0.993896L27.919 52.0939L29.881 51.7061L19.781 0.606098L17.819 0.993896ZM29.8714 52.1376L42.3714 1.03761L40.4286 0.562386L27.9286 51.6624L29.8714 52.1376ZM41.4 1.8H60.2V-0.200001H41.4V1.8ZM59.2265 1.02861L71.2265 52.1286L73.1735 51.6714L61.1735 0.571384L59.2265 1.02861ZM73.1807 52.0957L83.3807 0.995747L81.4193 0.604252L71.2194 51.7043L73.1807 52.0957ZM82.4 1.8H100.8V-0.200001H82.4V1.8ZM109.176 27.9L108.284 27.4473L108.279 27.4583L109.176 27.9ZM118.076 17.9L118.606 18.748L118.076 17.9ZM140.876 16.8L140.397 17.6779L140.405 17.6823L140.876 16.8ZM147.776 23.1L146.924 23.6241L148.776 26.633V23.1H147.776ZM147.776 15.2V14.2H146.776V15.2H147.776ZM164.876 15.2H165.876V14.2H164.876V15.2ZM164.876 71V72H165.876V71H164.876ZM147.776 71H146.776V72H147.776V71ZM147.776 63.1H148.776V59.687L146.934 62.5603L147.776 63.1ZM140.776 69.4L140.305 68.5176L140.297 68.5221L140.776 69.4ZM118.076 68.3L117.535 69.1412L117.546 69.148L118.076 68.3ZM109.176 58.2L108.276 58.6363L108.28 58.6445L108.284 58.6527L109.176 58.2ZM144.176 33L143.449 33.6873L143.459 33.6973L144.176 33ZM126.876 33L126.159 32.3026L126.159 32.3029L126.876 33ZM126.876 53.2L126.14 53.8775L126.15 53.8875L126.159 53.8974L126.876 53.2ZM144.176 53.2L143.459 52.5026L143.449 52.5128L144.176 53.2ZM106.976 43C106.976 37.3914 108.019 32.5142 110.073 28.3417L108.279 27.4583C106.066 31.9525 104.976 37.1419 104.976 43H106.976ZM110.067 28.3527C112.194 24.1642 115.042 20.9751 118.606 18.748L117.546 17.052C113.642 19.4916 110.558 22.9691 108.284 27.4473L110.067 28.3527ZM118.606 18.748C122.173 16.5186 126.154 15.4 130.576 15.4V13.4C125.797 13.4 121.445 14.6148 117.546 17.052L118.606 18.748ZM130.576 15.4C134.372 15.4 137.635 16.1711 140.397 17.6779L141.355 15.9221C138.25 14.2289 134.647 13.4 130.576 13.4V15.4ZM140.405 17.6823C143.267 19.2086 145.427 21.1919 146.924 23.6241L148.627 22.5759C146.924 19.8081 144.485 17.5914 141.346 15.9176L140.405 17.6823ZM148.776 23.1V15.2H146.776V23.1H148.776ZM147.776 16.2H164.876V14.2H147.776V16.2ZM163.876 15.2V71H165.876V15.2H163.876ZM164.876 70H147.776V72H164.876V70ZM148.776 71V63.1H146.776V71H148.776ZM146.934 62.5603C145.369 65.002 143.17 66.9899 140.305 68.5176L141.246 70.2824C144.382 68.6101 146.85 66.398 148.618 63.6397L146.934 62.5603ZM140.297 68.5221C137.535 70.0289 134.271 70.8 130.476 70.8V72.8C134.547 72.8 138.15 71.9711 141.255 70.2779L140.297 68.5221ZM130.476 70.8C126.124 70.8 122.175 69.6829 118.606 67.452L117.546 69.148C121.443 71.5837 125.761 72.8 130.476 72.8V70.8ZM118.617 67.4588C115.047 65.1638 112.195 61.9378 110.067 57.7473L108.284 58.6527C110.557 63.1289 113.638 66.6362 117.535 69.1412L118.617 67.4588ZM110.076 57.7637C108.019 53.5213 106.976 48.6081 106.976 43H104.976C104.976 48.8585 106.066 54.0787 108.276 58.6363L110.076 57.7637ZM148.776 43.1C148.776 38.6387 147.515 34.9984 144.893 32.3026L143.459 33.6973C145.636 35.9349 146.776 39.0279 146.776 43.1H148.776ZM144.902 32.3128C142.38 29.6462 139.25 28.3 135.576 28.3V30.3C138.701 30.3 141.305 31.4205 143.449 33.6872L144.902 32.3128ZM135.576 28.3C131.902 28.3 128.745 29.6452 126.159 32.3026L127.593 33.6973C129.807 31.4215 132.449 30.3 135.576 30.3V28.3ZM126.159 32.3029C123.598 34.937 122.376 38.5477 122.376 43H124.376C124.376 38.919 125.487 35.8629 127.593 33.6971L126.159 32.3029ZM122.376 43C122.376 47.455 123.599 51.118 126.14 53.8775L127.611 52.5225C125.486 50.2153 124.376 47.0784 124.376 43H122.376ZM126.159 53.8974C128.745 56.5548 131.902 57.9 135.576 57.9V55.9C132.449 55.9 129.807 54.7785 127.593 52.5026L126.159 53.8974ZM135.576 57.9C139.25 57.9 142.38 56.5538 144.902 53.8872L143.449 52.5128C141.305 54.7795 138.701 55.9 135.576 55.9V57.9ZM144.893 53.8974C147.515 51.2016 148.776 47.5613 148.776 43.1H146.776C146.776 47.1721 145.636 50.2651 143.459 52.5026L144.893 53.8974ZM194.347 24.5H193.347V27.8639L195.184 25.0463L194.347 24.5ZM201.847 17.3L202.347 18.1659L202.354 18.1617L202.361 18.1575L201.847 17.3ZM211.847 14.6H212.847V13.6H211.847V14.6ZM211.847 32.7V33.7H212.847V32.7H211.847ZM197.547 35.5L198.192 36.2643L198.199 36.2585L198.205 36.2526L197.547 35.5ZM194.347 71V72H195.347V71H194.347ZM177.247 71H176.247V72H177.247V71ZM177.247 15.2V14.2H176.247V15.2H177.247ZM194.347 15.2H195.347V14.2H194.347V15.2ZM195.184 25.0463C197.104 22.1035 199.491 19.8162 202.347 18.1659L201.347 16.4341C198.203 18.2505 195.59 20.7632 193.509 23.9537L195.184 25.0463ZM202.361 18.1575C205.198 16.4553 208.352 15.6 211.847 15.6V13.6C208.008 13.6 204.495 14.5447 201.332 16.4425L202.361 18.1575ZM210.847 14.6V32.7H212.847V14.6H210.847ZM211.847 31.7H207.147V33.7H211.847V31.7ZM207.147 31.7C202.756 31.7 199.277 32.6575 196.888 34.7474L198.205 36.2526C200.084 34.6091 203.004 33.7 207.147 33.7V31.7ZM196.902 34.7357C194.432 36.8198 193.347 40.3917 193.347 45.1H195.347C195.347 40.6083 196.395 37.7802 198.192 36.2643L196.902 34.7357ZM193.347 45.1V71H195.347V45.1H193.347ZM194.347 70H177.247V72H194.347V70ZM178.247 71V15.2H176.247V71H178.247ZM177.247 16.2H194.347V14.2H177.247V16.2ZM193.347 15.2V24.5H195.347V15.2H193.347ZM286.912 0.799999H287.912V-0.200001H286.912V0.799999ZM286.912 14.5V15.5H287.912V14.5H286.912ZM258.312 14.5V13.5H257.312V14.5H258.312ZM258.312 29.3H257.312V30.3H258.312V29.3ZM279.712 29.3H280.712V28.3H279.712V29.3ZM279.712 42.6V43.6H280.712V42.6H279.712ZM258.312 42.6V41.6H257.312V42.6H258.312ZM258.312 71V72H259.312V71H258.312ZM241.212 71H240.212V72H241.212V71ZM241.212 0.799999V-0.200001H240.212V0.799999H241.212ZM285.912 0.799999V14.5H287.912V0.799999H285.912ZM286.912 13.5H258.312V15.5H286.912V13.5ZM257.312 14.5V29.3H259.312V14.5H257.312ZM258.312 30.3H279.712V28.3H258.312V30.3ZM278.712 29.3V42.6H280.712V29.3H278.712ZM279.712 41.6H258.312V43.6H279.712V41.6ZM257.312 42.6V71H259.312V42.6H257.312ZM258.312 70H241.212V72H258.312V70ZM242.212 71V0.799999H240.212V71H242.212ZM241.212 1.8H286.912V-0.200001H241.212V1.8ZM306.499 68.3L306.025 69.1805L306.031 69.1835L306.499 68.3ZM296.199 58.3L295.33 58.7947L295.336 58.8047L296.199 58.3ZM296.299 28L297.163 28.5047L297.166 28.499L296.299 28ZM306.699 17.9L307.168 18.7835L306.699 17.9ZM336.299 17.9L335.831 18.7835L336.299 17.9ZM346.699 28L345.833 28.499L345.836 28.5047L346.699 28ZM346.599 58.3L345.738 57.7913L345.736 57.7953L346.599 58.3ZM336.099 68.3L335.636 67.4136L335.631 67.4165L336.099 68.3ZM329.599 53.4L328.882 52.7029L328.877 52.7081L328.872 52.7134L329.599 53.4ZM329.699 32.8L328.962 33.4757L328.967 33.4812L328.972 33.4866L329.699 32.8ZM313.199 32.8L313.927 33.4861L313.936 33.4757L313.199 32.8ZM313.099 53.4L312.352 54.0644L312.357 54.0701L312.362 54.0757L313.099 53.4ZM321.299 70.8C315.98 70.8 311.21 69.6661 306.968 67.4165L306.031 69.1835C310.589 71.6006 315.685 72.8 321.299 72.8V70.8ZM306.973 67.4195C302.805 65.1751 299.505 61.9733 297.063 57.7953L295.336 58.8047C297.96 63.2933 301.527 66.7582 306.025 69.1805L306.973 67.4195ZM297.068 57.8053C294.701 53.6458 293.499 48.7551 293.499 43.1H291.499C291.499 49.0449 292.765 54.2876 295.33 58.7947L297.068 57.8053ZM293.499 43.1C293.499 37.5184 294.731 32.6642 297.163 28.5047L295.436 27.4953C292.801 32.0025 291.499 37.2149 291.499 43.1H293.499ZM297.166 28.499C299.607 24.2587 302.937 21.0268 307.168 18.7835L306.231 17.0165C301.661 19.4398 298.058 22.9413 295.433 27.501L297.166 28.499ZM307.168 18.7835C311.41 16.5339 316.18 15.4 321.499 15.4V13.4C315.885 13.4 310.789 14.5994 306.231 17.0165L307.168 18.7835ZM321.499 15.4C326.819 15.4 331.589 16.5339 335.831 18.7835L336.768 17.0165C332.21 14.5994 327.113 13.4 321.499 13.4V15.4ZM335.831 18.7835C340.061 21.0268 343.391 24.2587 345.833 28.499L347.566 27.501C344.941 22.9413 341.337 19.4398 336.768 17.0165L335.831 18.7835ZM345.836 28.5047C348.268 32.6642 349.499 37.5184 349.499 43.1H351.499C351.499 37.2149 350.197 32.0025 347.563 27.4953L345.836 28.5047ZM349.499 43.1C349.499 48.6767 348.237 53.5635 345.738 57.7913L347.46 58.8087C350.162 54.2365 351.499 48.99 351.499 43.1H349.499ZM345.736 57.7953C343.298 61.9656 339.937 65.167 335.636 67.4137L336.562 69.1863C341.195 66.7663 344.834 63.301 347.463 58.8047L345.736 57.7953ZM335.631 67.4165C331.389 69.6661 326.619 70.8 321.299 70.8V72.8C326.913 72.8 332.01 71.6006 336.568 69.1835L335.631 67.4165ZM321.299 58C324.844 58 327.873 56.6842 330.326 54.0866L328.872 52.7134C326.792 54.9157 324.287 56 321.299 56V58ZM330.316 54.0971C332.885 51.4548 334.099 47.7375 334.099 43.1H332.099C332.099 47.3959 330.98 50.5452 328.882 52.7029L330.316 54.0971ZM334.099 43.1C334.099 38.4698 332.922 34.7565 330.426 32.1134L328.972 33.4866C331.009 35.6435 332.099 38.7968 332.099 43.1H334.099ZM330.436 32.1243C328.046 29.5169 325.045 28.2 321.499 28.2V30.2C324.487 30.2 326.952 31.2831 328.962 33.4757L330.436 32.1243ZM321.499 28.2C317.893 28.2 314.857 29.5121 312.462 32.1243L313.936 33.4757C315.942 31.2879 318.439 30.2 321.499 30.2V28.2ZM312.472 32.114C310.036 34.6977 308.899 38.4174 308.899 43.1H310.899C310.899 38.716 311.963 35.569 313.927 33.486L312.472 32.114ZM308.899 43.1C308.899 47.7158 310.002 51.4206 312.352 54.0644L313.847 52.7356C311.93 50.5794 310.899 47.4175 310.899 43.1H308.899ZM312.362 54.0757C314.752 56.6831 317.753 58 321.299 58V56C318.312 56 315.846 54.9169 313.836 52.7243L312.362 54.0757ZM376.671 24.5H375.671V27.8639L377.509 25.0463L376.671 24.5ZM384.171 17.3L384.671 18.1659L384.679 18.1617L384.686 18.1575L384.171 17.3ZM394.171 14.6H395.171V13.6H394.171V14.6ZM394.171 32.7V33.7H395.171V32.7H394.171ZM379.871 35.5L380.516 36.2643L380.523 36.2585L380.53 36.2526L379.871 35.5ZM376.671 71V72H377.671V71H376.671ZM359.571 71H358.571V72H359.571V71ZM359.571 15.2V14.2H358.571V15.2H359.571ZM376.671 15.2H377.671V14.2H376.671V15.2ZM377.509 25.0463C379.428 22.1035 381.815 19.8162 384.671 18.1659L383.671 16.4341C380.527 18.2505 377.914 20.7632 375.833 23.9537L377.509 25.0463ZM384.686 18.1575C387.523 16.4553 390.677 15.6 394.171 15.6V13.6C390.332 13.6 386.82 14.5447 383.657 16.4425L384.686 18.1575ZM393.171 14.6V32.7H395.171V14.6H393.171ZM394.171 31.7H389.471V33.7H394.171V31.7ZM389.471 31.7C385.081 31.7 381.601 32.6575 379.213 34.7474L380.53 36.2526C382.408 34.6091 385.328 33.7 389.471 33.7V31.7ZM379.226 34.7357C376.756 36.8198 375.671 40.3917 375.671 45.1H377.671C377.671 40.6083 378.719 37.7802 380.516 36.2643L379.226 34.7357ZM375.671 45.1V71H377.671V45.1H375.671ZM376.671 70H359.571V72H376.671V70ZM360.571 71V15.2H358.571V71H360.571ZM359.571 16.2H376.671V14.2H359.571V16.2ZM375.671 15.2V24.5H377.671V15.2H375.671ZM440.636 57.8H439.636V58.8H440.636V57.8ZM463.036 57.8H464.036V56.8H463.036V57.8ZM463.036 71V72H464.036V71H463.036ZM423.536 71H422.536V72H423.536V71ZM423.536 0.799999V-0.200001H422.536V0.799999H423.536ZM440.636 0.799999H441.636V-0.200001H440.636V0.799999ZM440.636 58.8H463.036V56.8H440.636V58.8ZM462.036 57.8V71H464.036V57.8H462.036ZM463.036 70H423.536V72H463.036V70ZM424.536 71V0.799999H422.536V71H424.536ZM423.536 1.8H440.636V-0.200001H423.536V1.8ZM439.636 0.799999V57.8H441.636V0.799999H439.636ZM481.792 68.3L481.318 69.1805L481.324 69.1835L481.792 68.3ZM471.492 58.3L470.623 58.7947L470.629 58.8047L471.492 58.3ZM471.592 28L472.456 28.5047L472.459 28.499L471.592 28ZM481.992 17.9L482.461 18.7835L481.992 17.9ZM511.592 17.9L511.124 18.7835L511.592 17.9ZM521.992 28L521.126 28.499L521.129 28.5047L521.992 28ZM521.892 58.3L521.031 57.7913L521.029 57.7953L521.892 58.3ZM511.392 68.3L510.929 67.4136L510.924 67.4165L511.392 68.3ZM504.892 53.4L504.175 52.7029L504.17 52.7081L504.165 52.7134L504.892 53.4ZM504.992 32.8L504.255 33.4757L504.26 33.4812L504.265 33.4866L504.992 32.8ZM488.492 32.8L489.22 33.4861L489.229 33.4757L488.492 32.8ZM488.392 53.4L487.645 54.0644L487.65 54.0701L487.655 54.0757L488.392 53.4ZM496.592 70.8C491.273 70.8 486.503 69.6661 482.261 67.4165L481.324 69.1835C485.882 71.6006 490.978 72.8 496.592 72.8V70.8ZM482.266 67.4195C478.098 65.1751 474.798 61.9733 472.355 57.7953L470.629 58.8047C473.253 63.2933 476.82 66.7582 481.318 69.1805L482.266 67.4195ZM472.361 57.8053C469.993 53.6458 468.792 48.7551 468.792 43.1H466.792C466.792 49.0449 468.058 54.2876 470.623 58.7947L472.361 57.8053ZM468.792 43.1C468.792 37.5184 470.024 32.6642 472.455 28.5047L470.729 27.4953C468.094 32.0025 466.792 37.2149 466.792 43.1H468.792ZM472.459 28.499C474.9 24.2587 478.23 21.0268 482.461 18.7835L481.524 17.0165C476.954 19.4398 473.351 22.9413 470.726 27.501L472.459 28.499ZM482.461 18.7835C486.703 16.5339 491.473 15.4 496.792 15.4V13.4C491.178 13.4 486.082 14.5994 481.524 17.0165L482.461 18.7835ZM496.792 15.4C502.112 15.4 506.882 16.5339 511.124 18.7835L512.061 17.0165C507.503 14.5994 502.406 13.4 496.792 13.4V15.4ZM511.124 18.7835C515.354 21.0268 518.684 24.2587 521.126 28.499L522.859 27.501C520.234 22.9413 516.63 19.4398 512.061 17.0165L511.124 18.7835ZM521.129 28.5047C523.561 32.6642 524.792 37.5184 524.792 43.1H526.792C526.792 37.2149 525.49 32.0025 522.855 27.4953L521.129 28.5047ZM524.792 43.1C524.792 48.6767 523.529 53.5635 521.031 57.7913L522.753 58.8087C525.455 54.2365 526.792 48.99 526.792 43.1H524.792ZM521.029 57.7953C518.591 61.9656 515.23 65.167 510.929 67.4137L511.855 69.1863C516.488 66.7663 520.127 63.301 522.755 58.8047L521.029 57.7953ZM510.924 67.4165C506.682 69.6661 501.912 70.8 496.592 70.8V72.8C502.206 72.8 507.303 71.6006 511.861 69.1835L510.924 67.4165ZM496.592 58C500.137 58 503.166 56.6842 505.619 54.0866L504.165 52.7134C502.085 54.9157 499.58 56 496.592 56V58ZM505.609 54.0971C508.178 51.4548 509.392 47.7375 509.392 43.1H507.392C507.392 47.3959 506.273 50.5452 504.175 52.7029L505.609 54.0971ZM509.392 43.1C509.392 38.4698 508.215 34.7565 505.719 32.1134L504.265 33.4866C506.302 35.6435 507.392 38.7968 507.392 43.1H509.392ZM505.729 32.1243C503.339 29.5169 500.338 28.2 496.792 28.2V30.2C499.78 30.2 502.245 31.2831 504.255 33.4757L505.729 32.1243ZM496.792 28.2C493.186 28.2 490.15 29.5121 487.755 32.1243L489.229 33.4757C491.235 31.2879 493.732 30.2 496.792 30.2V28.2ZM487.765 32.114C485.329 34.6977 484.192 38.4174 484.192 43.1H486.192C486.192 38.716 487.256 35.569 489.22 33.486L487.765 32.114ZM484.192 43.1C484.192 47.7158 485.295 51.4206 487.645 54.0644L489.14 52.7356C487.223 50.5794 486.192 47.4175 486.192 43.1H484.192ZM487.655 54.0757C490.045 56.6831 493.046 58 496.592 58V56C493.605 56 491.139 54.9169 489.129 52.7243L487.655 54.0757ZM559.964 55L559.007 55.2909L559.964 58.4379L560.921 55.2909L559.964 55ZM572.064 15.2V14.2H571.323L571.107 14.9091L572.064 15.2ZM590.264 15.2L591.206 15.5344L591.68 14.2H590.264V15.2ZM570.464 71V72H571.17L571.406 71.3344L570.464 71ZM549.364 71L548.422 71.3344L548.658 72H549.364V71ZM529.564 15.2V14.2H528.148L528.622 15.5344L529.564 15.2ZM547.864 15.2L548.821 14.9091L548.605 14.2H547.864V15.2ZM560.921 55.2909L573.021 15.4909L571.107 14.9091L559.007 54.7091L560.921 55.2909ZM572.064 16.2H590.264V14.2H572.064V16.2ZM589.322 14.8656L569.522 70.6656L571.406 71.3344L591.206 15.5344L589.322 14.8656ZM570.464 70H549.364V72H570.464V70ZM550.307 70.6656L530.506 14.8656L528.622 15.5344L548.422 71.3344L550.307 70.6656ZM529.564 16.2H547.864V14.2H529.564V16.2ZM546.907 15.4909L559.007 55.2909L560.921 54.7091L548.821 14.9091L546.907 15.4909ZM649.762 47.2V48.2H650.653L650.755 47.3146L649.762 47.2ZM611.062 47.2V46.2H609.982L610.065 47.2767L611.062 47.2ZM614.362 55.2L613.667 55.9194L613.68 55.9316L613.693 55.9433L614.362 55.2ZM630.562 52.5V51.5H629.923L629.654 52.0799L630.562 52.5ZM648.762 52.5L649.731 52.7467L650.048 51.5H648.762V52.5ZM643.662 62.4L642.896 61.7563L642.888 61.7668L643.662 62.4ZM634.562 69.3L634.976 70.2104L634.562 69.3ZM607.662 68.3L607.182 69.1774L607.662 68.3ZM597.662 58.3L598.536 57.8155L597.662 58.3ZM597.562 27.9L596.687 27.4155L596.681 27.4259L597.562 27.9ZM607.562 17.9L608.042 18.7774L607.562 17.9ZM636.662 17.8L636.187 18.68L636.662 17.8ZM646.462 27.5L645.588 27.9857L645.594 27.9961L646.462 27.5ZM632.562 37.7V38.7H633.562V37.7H632.562ZM629.562 30.7L630.217 29.9443L629.562 30.7ZM614.762 30.6L614.122 29.8318L614.115 29.8371L614.109 29.8426L614.762 30.6ZM611.162 37.7L610.173 37.5496L609.998 38.7H611.162V37.7ZM649.062 42.2C649.062 43.7584 648.964 45.3867 648.768 47.0854L650.755 47.3146C650.959 45.5466 651.062 43.8416 651.062 42.2H649.062ZM649.762 46.2H611.062V48.2H649.762V46.2ZM610.065 47.2767C610.344 50.9138 611.511 53.8377 613.667 55.9194L615.056 54.4806C613.346 52.829 612.312 50.4195 612.059 47.1233L610.065 47.2767ZM613.693 55.9433C615.889 57.92 618.566 58.9 621.662 58.9V56.9C619.024 56.9 616.834 56.08 615.031 54.4567L613.693 55.9433ZM621.662 58.9C623.936 58.9 625.933 58.4194 627.605 57.4049C629.282 56.3876 630.565 54.8738 631.469 52.9201L629.654 52.0799C628.892 53.7262 627.858 54.9124 626.568 55.6951C625.273 56.4806 623.654 56.9 621.662 56.9V58.9ZM630.562 53.5H648.762V51.5H630.562V53.5ZM647.793 52.2533C646.897 55.7721 645.267 58.9368 642.896 61.7564L644.427 63.0436C646.989 59.9965 648.76 56.5613 649.731 52.7467L647.793 52.2533ZM642.888 61.7668C640.591 64.5739 637.684 66.7824 634.148 68.3896L634.976 70.2104C638.773 68.4843 641.932 66.0928 644.436 63.0332L642.888 61.7668ZM634.148 68.3896C630.627 69.9902 626.67 70.8 622.262 70.8V72.8C626.92 72.8 631.163 71.9431 634.976 70.2104L634.148 68.3896ZM622.262 70.8C616.942 70.8 612.244 69.6659 608.142 67.4226L607.182 69.1774C611.613 71.6007 616.648 72.8 622.262 72.8V70.8ZM608.142 67.4226C604.044 65.182 600.847 61.9864 598.536 57.8155L596.787 58.7845C599.277 63.2803 602.746 66.7514 607.182 69.1774L608.142 67.4226ZM598.536 57.8155C596.232 53.654 595.062 48.7596 595.062 43.1H593.062C593.062 49.0404 594.292 54.2794 596.787 58.7845L598.536 57.8155ZM595.062 43.1C595.062 37.4359 596.2 32.5377 598.442 28.3741L596.681 27.4259C594.257 31.9289 593.062 37.1641 593.062 43.1H595.062ZM598.437 28.3845C600.747 24.2136 603.944 21.018 608.042 18.7774L607.082 17.0226C602.646 19.4486 599.177 22.9197 596.687 27.4155L598.437 28.3845ZM608.042 18.7774C612.142 16.535 616.873 15.4 622.262 15.4V13.4C616.584 13.4 611.515 14.5983 607.082 17.0226L608.042 18.7774ZM622.262 15.4C627.518 15.4 632.151 16.502 636.187 18.68L637.137 16.92C632.772 14.5647 627.805 13.4 622.262 13.4V15.4ZM636.187 18.68C640.218 20.8554 643.346 23.9513 645.588 27.9856L647.336 27.0144C644.911 22.6487 641.506 19.2779 637.137 16.92L636.187 18.68ZM645.594 27.9961C647.894 32.0227 649.062 36.7463 649.062 42.2H651.062C651.062 36.4537 649.829 31.3773 647.33 27.0039L645.594 27.9961ZM633.562 37.7C633.562 34.5119 632.461 31.8895 630.217 29.9443L628.907 31.4557C630.662 32.9771 631.562 35.0214 631.562 37.7H633.562ZM630.217 29.9443C628.01 28.0323 625.268 27.1 622.062 27.1V29.1C624.855 29.1 627.113 29.901 628.907 31.4557L630.217 29.9443ZM622.062 27.1C618.986 27.1 616.32 27.9999 614.122 29.8318L615.402 31.3682C617.204 29.8668 619.404 29.1 622.062 29.1V27.1ZM614.109 29.8426C611.958 31.6968 610.668 34.2999 610.173 37.5496L612.15 37.8504C612.589 34.9668 613.699 32.8366 615.415 31.3574L614.109 29.8426ZM611.162 38.7H632.562V36.7H611.162V38.7Z" fill="white"/>
</svg>
